# xmcd
# Track frame offsets:
# 150
# 13843
# 26567
# 40383
# 52671
# 67451
# 80737
# 92070
# 106477
# 119984
# 132152
# 147406
# 162484
# 175129
#
# Disc length: 2500 seconds
# Revision: 0
# Processed by: cddbd v1.4PL0 Copyright (c) Steve Scherf et al.
# Submitted via: VisiTrax 2.9.3.171 - For more info visit www.synapsa.com
#
DISCID=d009c20e
DTITLE=Lena Horne - Cocktail Hour - Lena Horne
DYEAR=1900
DGENRE=
TTITLE0=St. Louis Blues
TTITLE1=Aunt Hagar Blues
TTITLE2=Haunted Town
TTITLE3=Moanin' Low
TTITLE4=You're My Thrill
TTITLE5=Mad About The Boy
TTITLE6=Ill Wind
TTITLE7=I Gotta Right To Sing the Blues
TTITLE8=Beale Street Blues
TTITLE9=What Is This Thing Called Love
TTITLE10=Stormy Weather
TTITLE11=Good For Nothin' Joe
TTITLE12=As Long as I Live
TTITLE13=Careless Love
EXTD=
EXTT0=
EXTT1=
EXTT2=
EXTT3=
EXTT4=
EXTT5=
EXTT6=
EXTT7=
EXTT8=
EXTT9=
EXTT10=
EXTT11=
EXTT12=
EXTT13=
PLAYORDER=
